<svg width="38" height="38" viewBox="0 0 38 38" fill="none" xmlns="http://www.w3.org/2000/svg">
<path d="M6.13335 1.56675L19 14.4334L31.8 1.63341C32.0828 1.33247 32.4234 1.09173 32.8014 0.925622C33.1794 0.759514 33.5871 0.671463 34 0.666748C34.8841 0.666748 35.7319 1.01794 36.357 1.64306C36.9822 2.26818 37.3334 3.11603 37.3334 4.00008C37.3411 4.40875 37.2653 4.81471 37.1105 5.19302C36.9558 5.57133 36.7253 5.91403 36.4333 6.20008L23.4667 19.0001L36.4333 31.9668C36.9827 32.5042 37.3049 33.232 37.3334 34.0001C37.3334 34.8841 36.9822 35.732 36.357 36.3571C35.7319 36.9822 34.8841 37.3334 34 37.3334C33.5752 37.351 33.1514 37.2801 32.7554 37.1252C32.3595 36.9703 32.0001 36.7347 31.7 36.4334L19 23.5667L6.16668 36.4001C5.88503 36.691 5.54856 36.9232 5.17669 37.0834C4.80481 37.2436 4.4049 37.3286 4.00001 37.3334C3.11596 37.3334 2.26811 36.9822 1.64299 36.3571C1.01787 35.732 0.66668 34.8841 0.66668 34.0001C0.658908 33.5914 0.734731 33.1855 0.889497 32.8071C1.04426 32.4288 1.2747 32.0861 1.56668 31.8001L14.5333 19.0001L1.56668 6.03341C1.0173 5.49594 0.695145 4.76812 0.66668 4.00008C0.66668 3.11603 1.01787 2.26818 1.64299 1.64306C2.26811 1.01794 3.11596 0.666748 4.00001 0.666748C4.80001 0.676748 5.56668 1.00008 6.13335 1.56675Z" fill="#F5F5F5"/>
</svg>
