<svg width="20" height="20" viewBox="0 0 20 20" fill="none" xmlns="http://www.w3.org/2000/svg">
<path d="M10 16C8.3424 16 6.75268 15.3415 5.58058 14.1694C4.40848 12.9973 3.75 11.4076 3.75 9.75C3.75 8.0924 4.40848 6.50268 5.58058 5.33058C6.75268 4.15848 8.3424 3.5 10 3.5C11.6576 3.5 13.2473 4.15848 14.4194 5.33058C15.5915 6.50268 16.25 8.0924 16.25 9.75C16.25 11.4076 15.5915 12.9973 14.4194 14.1694C13.2473 15.3415 11.6576 16 10 16ZM10 19.125C12.4864 19.125 14.871 18.1373 16.6291 16.3791C18.3873 14.621 19.375 12.2364 19.375 9.75C19.375 7.2636 18.3873 4.87903 16.6291 3.12087C14.871 1.36272 12.4864 0.375 10 0.375C7.5136 0.375 5.12903 1.36272 3.37087 3.12087C1.61272 4.87903 0.625 7.2636 0.625 9.75C0.625 12.2364 1.61272 14.621 3.37087 16.3791C5.12903 18.1373 7.5136 19.125 10 19.125Z" fill="#F5F5F5"/>
</svg>
