<svg width="42" height="42" viewBox="0 0 42 42" fill="none" xmlns="http://www.w3.org/2000/svg">
<path d="M21 41.7292H31.4166V37.5625H21C11.9583 37.5625 4.33329 29.9375 4.33329 20.8958C4.33329 11.8542 11.9583 4.22917 21 4.22917C30.0416 4.22917 37.6666 11.8542 37.6666 20.8958V23.875C37.6666 25.5208 36.1875 27.1458 34.5416 27.1458C32.8958 27.1458 31.4166 25.5208 31.4166 23.875V20.8958C31.4166 15.1458 26.75 10.4792 21 10.4792C15.25 10.4792 10.5833 15.1458 10.5833 20.8958C10.5833 26.6458 15.25 31.3125 21 31.3125C23.875 31.3125 26.5 30.1458 28.375 28.25C29.7291 30.1042 32.0625 31.3125 34.5416 31.3125C38.6458 31.3125 41.8333 27.9792 41.8333 23.875V20.8958C41.8333 9.39583 32.5 0.0625 21 0.0625C9.49996 0.0625 0.166626 9.39583 0.166626 20.8958C0.166626 32.3958 9.49996 41.7292 21 41.7292ZM21 27.1458C17.5416 27.1458 14.75 24.3542 14.75 20.8958C14.75 17.4375 17.5416 14.6458 21 14.6458C24.4583 14.6458 27.25 17.4375 27.25 20.8958C27.25 24.3542 24.4583 27.1458 21 27.1458Z" fill="#F5F5F5"/>
</svg>
