<svg width="36" height="36" viewBox="0 0 36 36" fill="none" xmlns="http://www.w3.org/2000/svg">
<path d="M34.459 1.37498C34.1285 1.16052 33.7591 1.01326 33.3717 0.941613C32.9843 0.86997 32.5866 0.875348 32.2013 0.95744C31.816 1.03953 31.4507 1.19673 31.1262 1.42005C30.8016 1.64337 30.5243 1.92845 30.31 2.25898L13.5 28.17L5.30197 20.59C5.01274 20.3225 4.67366 20.1147 4.30409 19.9783C3.93453 19.8419 3.54172 19.7796 3.14809 19.7951C2.35313 19.8262 1.60309 20.1718 1.06297 20.756C0.522859 21.3401 0.236916 22.1149 0.268047 22.9099C0.299178 23.7048 0.644833 24.4549 1.22897 24.995L11.993 34.947C11.993 34.947 12.302 35.213 12.445 35.306C12.7755 35.5206 13.145 35.668 13.5325 35.7397C13.9199 35.8115 14.3178 35.8061 14.7032 35.724C15.0886 35.6419 15.454 35.4847 15.7786 35.2613C16.1032 35.0378 16.3806 34.7527 16.595 34.422L35.343 5.52398C35.5574 5.19354 35.7047 4.82408 35.7763 4.4367C35.848 4.04933 35.8426 3.65164 35.7605 3.26635C35.6784 2.88105 35.5212 2.51571 35.2979 2.19118C35.0746 1.86666 34.7895 1.58931 34.459 1.37498Z" fill="#F5F5F5"/>
</svg>
