<svg width="40" height="40" viewBox="0 0 40 40" fill="none" xmlns="http://www.w3.org/2000/svg">
<path d="M23.6289 3.40245C23.6809 3.20383 23.772 3.01757 23.8968 2.8546C24.0217 2.69163 24.1778 2.55522 24.3561 2.45335C24.5344 2.35149 24.7311 2.28623 24.9349 2.26139C25.1388 2.23655 25.3455 2.25264 25.543 2.3087C28.4557 3.0899 31.1116 4.62371 33.244 6.7561C35.3764 8.8885 36.9102 11.5444 37.6914 14.4571C37.7475 14.6546 37.7636 14.8614 37.7387 15.0652C37.7139 15.269 37.6486 15.4658 37.5468 15.644C37.4449 15.8223 37.3085 15.9784 37.1455 16.1033C36.9825 16.2281 36.7963 16.3192 36.5977 16.3712C36.4643 16.4098 36.3263 16.4295 36.1875 16.4298C35.8426 16.4278 35.5081 16.3118 35.2361 16.0998C34.9641 15.8878 34.7698 15.5918 34.6836 15.2579C34.0338 12.8796 32.7751 10.7117 31.0317 8.96835C29.2884 7.22497 27.1205 5.96629 24.7422 5.31651C24.5418 5.26668 24.3535 5.17714 24.1883 5.05319C24.0232 4.92924 23.8846 4.7734 23.7808 4.59491C23.677 4.41642 23.61 4.21891 23.5839 4.01408C23.5578 3.80925 23.5731 3.60126 23.6289 3.40245ZM23.1211 11.3517C24.4431 11.7136 25.6481 12.4136 26.6173 13.3828C27.5865 14.352 28.2865 15.557 28.6484 16.879C28.7316 17.2146 28.925 17.5125 29.1977 17.725C29.4704 17.9375 29.8066 18.0523 30.1523 18.0509C30.2848 18.0522 30.4167 18.0324 30.543 17.9923C30.7434 17.9425 30.9317 17.8529 31.0968 17.729C31.262 17.605 31.4006 17.4492 31.5044 17.2707C31.6082 17.0922 31.6751 16.8947 31.7012 16.6899C31.7273 16.485 31.712 16.277 31.6562 16.0782C31.163 14.2218 30.1879 12.5287 28.8296 11.1705C27.4714 9.81224 25.7783 8.83711 23.9219 8.34386C23.7181 8.26961 23.501 8.23861 23.2846 8.25283C23.0681 8.26706 22.857 8.3262 22.6646 8.42648C22.4723 8.52677 22.3029 8.66601 22.1674 8.83533C22.0318 9.00466 21.9329 9.20036 21.8771 9.40998C21.8213 9.6196 21.8098 9.83854 21.8432 10.0529C21.8767 10.2672 21.9544 10.4722 22.0714 10.6549C22.1884 10.8375 22.3422 10.9938 22.5229 11.1138C22.7036 11.2337 22.9073 11.3147 23.1211 11.3517ZM39.2344 30.1993C38.8889 32.8368 37.5973 35.2591 35.5999 37.0159C33.6025 38.7726 31.035 39.7442 28.375 39.7501C12.8672 39.7501 0.25 27.1329 0.25 11.6251C0.255864 8.96506 1.22749 6.39766 2.98422 4.40022C4.74096 2.40279 7.16327 1.11125 9.80078 0.765732C10.4731 0.691183 11.1518 0.832742 11.7382 1.16988C12.3247 1.50702 12.7886 2.0222 13.0625 2.64073L16.9883 11.8009C17.1919 12.2764 17.2736 12.7952 17.2258 13.3102C17.1781 13.8252 17.0024 14.3202 16.7148 14.7501L13.4727 19.711C14.9408 22.6905 17.3599 25.0958 20.3477 26.547L25.25 23.2853C25.6795 22.9958 26.1757 22.8205 26.6917 22.7761C27.2077 22.7317 27.7266 22.8195 28.1992 23.0314L37.3594 26.9376C37.9779 27.2115 38.4931 27.6754 38.8302 28.2619C39.1674 28.8483 39.3089 29.527 39.2344 30.1993ZM36.1289 29.8087L26.9687 25.9025L22.0859 29.1642C21.6367 29.4612 21.1182 29.637 20.581 29.6747C20.0437 29.7123 19.5058 29.6105 19.0195 29.379C15.3807 27.6188 12.4374 24.6892 10.6602 21.0587C10.4258 20.574 10.3207 20.0371 10.3549 19.4998C10.3891 18.9626 10.5616 18.4433 10.8555 17.9923L14.1172 13.0314L10.1914 3.8712C8.30654 4.1135 6.57462 5.03451 5.31991 6.46178C4.0652 7.88906 3.37374 9.72474 3.375 11.6251C3.38017 18.2539 6.01575 24.6098 10.703 29.2971C15.3903 33.9844 21.7462 36.6199 28.375 36.6251C30.2754 36.6264 32.111 35.9349 33.5383 34.6802C34.9656 33.4255 35.8866 31.6936 36.1289 29.8087Z" fill="#F5F5F5"/>
</svg>
